PathFileType	4	(X/Y/Z)	D:\luciana\Cultery.trc
DataRate	CameraRate	NumFrames	NumMarkers	Units	OrigDataRate	OrigDataStartFrame	OrigNumFrames
250.00	250.00	10	17	mm	250.00	845	2050
Frame#	Time	pelvisR			Trunk1			Trunk2			Trunk3			C7			shoulder			upperArm1			upperArm2			upperArm3			elbow			forearm1			forearm2			forearm3			wrist1			wrist2			wrist3			Hand			
		X1	Y1	Z1	X2	Y2	Z2	X3	Y3	Z3	X4	Y4	Z4	X5	Y5	Z5	X6	Y6	Z6	X7	Y7	Z7	X8	Y8	Z8	X9	Y9	Z9	X10	Y10	Z10	X11	Y11	Z11	X12	Y12	Z12	X13	Y13	Z13	X14	Y14	Z14	X15	Y15	Z15	X16	Y16	Z16	X17	Y17	Z17	

1500	6.000000	1720.709324	650.900066	687.946916	1612.007141	854.511976	939.816475	1643.624067	766.178966	924.669385	1552.983761	798.482239	928.407907	1553.616285	1130.150914	833.913624	1724.200964	1058.069944	765.218616	1846.224427	908.208132	693.008482	1813.590288	869.643867	750.139356	1782.206416	928.519130	647.878826	1829.135060	795.590937	614.956558	1850.582600	782.067120	529.102862	1818.346500	715.583801	563.631415	1798.256159	833.935559	539.324701	1764.815092	831.884146	414.404988	1779.224396	753.477693	407.802999	1699.871421	837.638795	451.563001	1721.817255	803.577363	328.839183	
1501	6.004000	1720.711470	650.900006	687.950432	1611.989021	854.528308	939.819396	1643.602371	766.175270	924.684048	1552.953482	798.489571	928.411365	1553.614140	1130.154490	833.877683	1724.271536	1057.967186	765.273213	1846.878767	907.397687	694.158494	1813.676119	869.526207	750.901639	1784.938574	927.925050	648.437202	1829.588652	795.004606	616.060853	1850.976825	781.433702	530.238271	1818.642855	715.031564	564.799368	1800.599694	832.824528	540.682435	1765.156984	831.455708	415.678710	1779.425979	753.008962	409.001231	1700.263977	837.290764	452.899694	1721.995115	803.284764	330.127239	
1502	6.008000	1720.707655	650.899291	687.958360	1611.939192	854.525864	939.808846	1643.563509	766.169548	924.703717	1552.909374	798.492908	928.401530	1553.608418	1130.152345	833.838820	1724.351048	1057.866812	765.326798	1847.229004	906.962693	695.032716	1813.794255	869.417667	751.698315	1785.875201	927.469671	648.960769	1830.082059	794.452667	617.193103	1851.340055	780.803382	531.329632	1818.938017	714.465499	565.960586	1801.495790	832.181692	541.853189	1765.486240	831.021369	416.945457	1779.579878	752.516448	410.253793	1700.661659	836.942434	454.226106	1722.177863	802.989066	331.450939	
1503	6.012000	1720.709324	650.899291	687.970817	1611.899257	854.524434	939.794123	1643.521786	766.158819	924.727142	1552.869201	798.501670	928.394079	1553.599119	1130.147457	833.809733	1724.431872	1057.770014	765.371680	1847.521782	906.636357	695.813894	1813.902378	869.322181	752.515316	1786.364198	927.032113	649.500668	1830.498219	793.929517	618.319631	1851.690769	780.185759	532.438457	1819.233775	713.887453	567.145348	1801.961184	831.643105	542.992294	1765.840054	830.607653	418.224752	1779.771566	752.118647	411.444634	1701.043129	836.593568	455.549330	1722.337842	802.675724	332.699448	
1504	6.016000	1720.706105	650.891483	687.978566	1611.846924	854.502916	939.784884	1643.495083	766.149223	924.749136	1552.842855	798.506260	928.389907	1553.580046	1130.135775	833.773553	1724.520206	1057.674885	765.437007	1847.798109	906.344593	696.575165	1813.992262	869.223893	753.312588	1786.730170	926.583171	650.079787	1830.917478	793.380678	619.487643	1852.047086	779.555798	533.579051	1819.519043	713.321984	568.337679	1802.314878	831.126392	544.084787	1766.192675	830.190003	419.515550	1780.029893	751.702607	412.673652	1701.409817	836.224318	456.889182	1722.486615	802.313685	333.997250	
1505	6.020000	1720.700502	650.883853	687.976301	1611.803889	854.523838	939.774334	1643.467784	766.144156	924.767196	1552.823424	798.515081	928.388357	1553.569794	1130.130410	833.738506	1724.614263	1057.571054	765.512884	1848.019958	906.058311	697.357059	1814.090848	869.135797	754.082680	1787.023544	926.141202	650.667250	1831.345797	792.827964	620.644569	1852.401257	778.924346	534.707069	1819.808006	712.778032	569.542646	1802.663088	830.626786	545.134783	1766.535163	829.771399	420.800209	1780.230880	751.231790	413.912624	1701.781392	835.845828	458.219826	1722.666502	801.949620	335.329264	
1506	6.024000	1720.704198	650.884509	687.987983	1611.775398	854.541540	939.766049	1643.430233	766.140699	924.790502	1552.799225	798.527181	928.386152	1553.575993	1130.140424	833.716035	1724.691510	1057.487726	765.584767	1848.222017	905.793309	698.128700	1814.203262	869.065702	754.889607	1787.356615	925.723433	651.266456	1831.759214	792.275190	621.764481	1852.755666	778.299332	535.849690	1820.106864	712.232947	570.733786	1803.009987	830.151916	546.155572	1766.849279	829.302490	422.088146	1780.453920	750.747502	415.140986	1702.151299	835.458815	459.568024	1722.810030	801.545560	336.627662	
1507	6.028000	1720.692039	650.875986	687.990129	1611.741424	854.553878	939.743876	1643.395662	766.138494	924.809337	1552.779675	798.538566	928.379297	1553.579926	1130.137682	833.674610	1724.765182	1057.398438	765.655696	1848.463535	905.562699	698.881626	1814.333439	869.010031	755.710721	1787.678361	925.304592	651.850283	1832.166553	791.771650	622.959793	1853.121996	777.712703	537.006974	1820.409179	711.665928	571.966350	1803.291678	829.659700	547.199011	1767.190099	828.869820	423.395485	1780.716777	750.284135	416.395128	1702.511787	835.058093	460.908532	1722.935081	801.084876	337.963104	
1508	6.032000	1720.706820	650.885820	688.015103	1611.720562	854.557991	939.715683	1643.372059	766.138911	924.820185	1552.746415	798.534393	928.374469	1553.586245	1130.129218	833.631873	1724.853277	1057.307482	765.725076	1848.716736	905.350983	699.616671	1814.451456	868.957758	756.533504	1787.987351	924.865961	652.413011	1832.550406	791.253567	624.172091	1853.460073	777.123272	538.164914	1820.722818	711.107254	573.215842	1803.750753	829.123259	548.549533	1767.526150	828.403533	424.699754	1781.000137	749.849379	417.639315	1702.888846	834.661841	462.261349	1723.018289	800.561309	339.226425	
1509	6.036000	1720.708489	650.890470	688.021898	1611.707687	854.570687	939.712286	1643.337727	766.139627	924.831510	1552.732110	798.543215	928.367496	1553.603888	1130.124092	833.589733	1724.932313	1057.210922	765.802085	1848.954439	905.133963	700.362802	1814.534783	868.894100	757.331371	1788.306355	924.413085	652.979374	1832.965970	790.729761	625.357211	1853.827357	776.519895	539.362431	1821.042657	710.554957	574.427605	1804.569840	828.580379	550.216198	1767.864704	827.922761	426.003873	1781.200528	749.363840	418.938220	1703.282595	834.264696	463.593721	1723.189831	800.142407	340.550661	
